<mxfile host="65bd71144e">
    <diagram id="UibdG1P6iw8BnFFcsrGG" name="Page-1">
        <mxGraphModel dx="1656" dy="959" grid="1" gridSize="10" guides="1" tooltips="1" connect="1" arrows="1" fold="1" page="1" pageScale="1" pageWidth="850" pageHeight="1100" math="0" shadow="0">
            <root>
                <mxCell id="0"/>
                <mxCell id="1" parent="0"/>
                <mxCell id="2" value="" style="rounded=1;whiteSpace=wrap;html=1;fontFamily=Lucida Console;align=right;shadow=0;sketch=1;fillStyle=cross-hatch;fillColor=none;" parent="1" vertex="1">
                    <mxGeometry x="0.29" y="40" width="160" height="40" as="geometry"/>
                </mxCell>
                <mxCell id="30" value="" style="endArrow=none;html=1;rounded=0;" parent="1" edge="1">
                    <mxGeometry width="50" height="50" relative="1" as="geometry">
                        <mxPoint x="0.29" y="30" as="sourcePoint"/>
                        <mxPoint x="160.29" y="30" as="targetPoint"/>
                        <Array as="points">
                            <mxPoint x="0.29" y="20"/>
                            <mxPoint x="160.29" y="20"/>
                        </Array>
                    </mxGeometry>
                </mxCell>
                <mxCell id="31" value="16 MiB" style="edgeLabel;html=1;align=center;verticalAlign=middle;resizable=0;points=[];fontFamily=Lucida Console;fontSize=12;" parent="30" vertex="1" connectable="0">
                    <mxGeometry x="0.7778" y="1" relative="1" as="geometry">
                        <mxPoint x="20" y="-9" as="offset"/>
                    </mxGeometry>
                </mxCell>
                <mxCell id="32" value="0 MiB" style="edgeLabel;html=1;align=center;verticalAlign=middle;resizable=0;points=[];fontFamily=Lucida Console;fontSize=12;" parent="30" vertex="1" connectable="0">
                    <mxGeometry x="-0.7143" y="2" relative="1" as="geometry">
                        <mxPoint x="-16" y="-8" as="offset"/>
                    </mxGeometry>
                </mxCell>
                <mxCell id="33" value="" style="endArrow=none;html=1;rounded=0;" parent="1" edge="1">
                    <mxGeometry width="50" height="50" relative="1" as="geometry">
                        <mxPoint x="180.29" y="30" as="sourcePoint"/>
                        <mxPoint x="340.29" y="30" as="targetPoint"/>
                        <Array as="points">
                            <mxPoint x="180.29" y="20"/>
                            <mxPoint x="340.29" y="20"/>
                        </Array>
                    </mxGeometry>
                </mxCell>
                <mxCell id="34" value="32 MiB" style="edgeLabel;html=1;align=center;verticalAlign=middle;resizable=0;points=[];fontFamily=Lucida Console;fontSize=12;" parent="33" vertex="1" connectable="0">
                    <mxGeometry x="0.7778" y="1" relative="1" as="geometry">
                        <mxPoint x="10" y="-9" as="offset"/>
                    </mxGeometry>
                </mxCell>
                <mxCell id="36" value="" style="rounded=1;whiteSpace=wrap;html=1;fontFamily=Lucida Console;align=right;shadow=0;sketch=1;fillStyle=cross-hatch;fillColor=none;" parent="1" vertex="1">
                    <mxGeometry x="0.28999999999999915" y="120" width="160" height="40" as="geometry"/>
                </mxCell>
                <mxCell id="37" value="" style="rounded=1;whiteSpace=wrap;html=1;fontFamily=Lucida Console;align=right;shadow=0;sketch=1;fillStyle=cross-hatch;fillColor=#666666;" parent="1" vertex="1">
                    <mxGeometry x="0.28999999999999915" y="120" width="60" height="40" as="geometry"/>
                </mxCell>
                <mxCell id="43" value="b0" style="rounded=0;whiteSpace=wrap;html=1;fontFamily=Lucida Console;align=center;strokeColor=none;fillColor=none;fontSize=12;" parent="1" vertex="1">
                    <mxGeometry x="0.28999999999999915" y="160" width="60" height="40" as="geometry"/>
                </mxCell>
                <mxCell id="48" value="" style="rounded=1;whiteSpace=wrap;html=1;fontFamily=Lucida Console;align=right;shadow=0;sketch=1;fillStyle=cross-hatch;fillColor=none;" parent="1" vertex="1">
                    <mxGeometry x="0.28999999999999915" y="200" width="160" height="40" as="geometry"/>
                </mxCell>
                <mxCell id="49" value="" style="rounded=1;whiteSpace=wrap;html=1;fontFamily=Lucida Console;align=right;shadow=0;sketch=1;fillStyle=cross-hatch;fillColor=#666666;" parent="1" vertex="1">
                    <mxGeometry x="0.28999999999999915" y="200" width="60" height="40" as="geometry"/>
                </mxCell>
                <mxCell id="50" value="" style="rounded=1;whiteSpace=wrap;html=1;fontFamily=Lucida Console;align=right;shadow=0;sketch=1;fillStyle=cross-hatch;fillColor=#666666;" parent="1" vertex="1">
                    <mxGeometry x="60.28999999999999" y="200" width="90" height="40" as="geometry"/>
                </mxCell>
                <mxCell id="55" value="b0" style="rounded=0;whiteSpace=wrap;html=1;fontFamily=Lucida Console;align=center;strokeColor=none;fillColor=none;fontSize=12;" parent="1" vertex="1">
                    <mxGeometry x="0.28999999999999915" y="240" width="60" height="40" as="geometry"/>
                </mxCell>
                <mxCell id="56" value="b1" style="rounded=0;whiteSpace=wrap;html=1;fontFamily=Lucida Console;align=center;strokeColor=none;fillColor=none;fontSize=12;" parent="1" vertex="1">
                    <mxGeometry x="60.28999999999999" y="240" width="90" height="40" as="geometry"/>
                </mxCell>
                <mxCell id="60" value="" style="rounded=1;whiteSpace=wrap;html=1;fontFamily=Lucida Console;align=right;shadow=0;sketch=1;fillStyle=cross-hatch;fillColor=none;" parent="1" vertex="1">
                    <mxGeometry x="0.28999999999999915" y="280" width="160" height="40" as="geometry"/>
                </mxCell>
                <mxCell id="61" value="" style="rounded=1;whiteSpace=wrap;html=1;fontFamily=Lucida Console;align=right;shadow=0;sketch=1;fillStyle=cross-hatch;fillColor=#666666;" parent="1" vertex="1">
                    <mxGeometry x="0.28999999999999915" y="280" width="60" height="40" as="geometry"/>
                </mxCell>
                <mxCell id="62" value="" style="rounded=1;whiteSpace=wrap;html=1;fontFamily=Lucida Console;align=right;shadow=0;sketch=1;fillStyle=cross-hatch;fillColor=#666666;" parent="1" vertex="1">
                    <mxGeometry x="60.28999999999999" y="280" width="90" height="40" as="geometry"/>
                </mxCell>
                <mxCell id="63" value="" style="rounded=1;whiteSpace=wrap;html=1;fontFamily=Lucida Console;align=right;shadow=0;sketch=1;fillStyle=cross-hatch;fillColor=none;" parent="1" vertex="1">
                    <mxGeometry x="180.29" y="280" width="160" height="40" as="geometry"/>
                </mxCell>
                <mxCell id="64" value="" style="rounded=1;whiteSpace=wrap;html=1;fontFamily=Lucida Console;align=right;shadow=0;sketch=1;fillStyle=cross-hatch;fillColor=#666666;" parent="1" vertex="1">
                    <mxGeometry x="180.29" y="280" width="40" height="40" as="geometry"/>
                </mxCell>
                <mxCell id="67" value="b0" style="rounded=0;whiteSpace=wrap;html=1;fontFamily=Lucida Console;align=center;strokeColor=none;fillColor=none;fontSize=12;" parent="1" vertex="1">
                    <mxGeometry x="0.28999999999999915" y="320" width="60" height="40" as="geometry"/>
                </mxCell>
                <mxCell id="68" value="b1" style="rounded=0;whiteSpace=wrap;html=1;fontFamily=Lucida Console;align=center;strokeColor=none;fillColor=none;fontSize=12;" parent="1" vertex="1">
                    <mxGeometry x="60.28999999999999" y="320" width="90" height="40" as="geometry"/>
                </mxCell>
                <mxCell id="69" value="b2" style="rounded=0;whiteSpace=wrap;html=1;fontFamily=Lucida Console;align=center;strokeColor=none;fillColor=none;fontSize=12;" parent="1" vertex="1">
                    <mxGeometry x="180.29" y="320" width="40" height="40" as="geometry"/>
                </mxCell>
                <mxCell id="72" value="" style="rounded=1;whiteSpace=wrap;html=1;fontFamily=Lucida Console;align=right;shadow=0;sketch=1;fillStyle=cross-hatch;fillColor=none;" parent="1" vertex="1">
                    <mxGeometry x="0.28999999999999915" y="360" width="160" height="40" as="geometry"/>
                </mxCell>
                <mxCell id="73" value="" style="rounded=1;whiteSpace=wrap;html=1;fontFamily=Lucida Console;align=right;shadow=0;sketch=1;fillStyle=cross-hatch;fillColor=#666666;" parent="1" vertex="1">
                    <mxGeometry x="0.28999999999999915" y="360" width="60" height="40" as="geometry"/>
                </mxCell>
                <mxCell id="74" value="" style="rounded=1;whiteSpace=wrap;html=1;fontFamily=Lucida Console;align=right;shadow=0;sketch=1;fillStyle=cross-hatch;fillColor=#666666;" parent="1" vertex="1">
                    <mxGeometry x="60.28999999999999" y="360" width="90" height="40" as="geometry"/>
                </mxCell>
                <mxCell id="75" value="" style="rounded=1;whiteSpace=wrap;html=1;fontFamily=Lucida Console;align=right;shadow=0;sketch=1;fillStyle=cross-hatch;fillColor=none;" parent="1" vertex="1">
                    <mxGeometry x="180.29" y="360" width="160" height="40" as="geometry"/>
                </mxCell>
                <mxCell id="76" value="" style="rounded=1;whiteSpace=wrap;html=1;fontFamily=Lucida Console;align=right;shadow=0;sketch=1;fillStyle=cross-hatch;fillColor=#666666;" parent="1" vertex="1">
                    <mxGeometry x="180.29" y="360" width="40" height="40" as="geometry"/>
                </mxCell>
                <mxCell id="77" value="" style="rounded=1;whiteSpace=wrap;html=1;fontFamily=Lucida Console;align=right;shadow=0;sketch=1;fillStyle=cross-hatch;fillColor=#666666;" parent="1" vertex="1">
                    <mxGeometry x="220.28999999999996" y="360" width="40" height="40" as="geometry"/>
                </mxCell>
                <mxCell id="79" value="b0" style="rounded=0;whiteSpace=wrap;html=1;fontFamily=Lucida Console;align=center;strokeColor=none;fillColor=none;fontSize=12;" parent="1" vertex="1">
                    <mxGeometry x="0.28999999999999915" y="400" width="60" height="40" as="geometry"/>
                </mxCell>
                <mxCell id="80" value="b1" style="rounded=0;whiteSpace=wrap;html=1;fontFamily=Lucida Console;align=center;strokeColor=none;fillColor=none;fontSize=12;" parent="1" vertex="1">
                    <mxGeometry x="60.28999999999999" y="400" width="90" height="40" as="geometry"/>
                </mxCell>
                <mxCell id="81" value="b2" style="rounded=0;whiteSpace=wrap;html=1;fontFamily=Lucida Console;align=center;strokeColor=none;fillColor=none;fontSize=12;" parent="1" vertex="1">
                    <mxGeometry x="180.29" y="400" width="40" height="40" as="geometry"/>
                </mxCell>
                <mxCell id="82" value="b3" style="rounded=0;whiteSpace=wrap;html=1;fontFamily=Lucida Console;align=center;strokeColor=none;fillColor=none;fontSize=12;" parent="1" vertex="1">
                    <mxGeometry x="220.28999999999996" y="400" width="40" height="40" as="geometry"/>
                </mxCell>
                <mxCell id="84" value="" style="rounded=1;whiteSpace=wrap;html=1;fontFamily=Lucida Console;align=right;shadow=0;sketch=1;fillStyle=cross-hatch;fillColor=none;" parent="1" vertex="1">
                    <mxGeometry x="0.28999999999999915" y="440" width="160" height="40" as="geometry"/>
                </mxCell>
                <mxCell id="85" value="" style="rounded=1;whiteSpace=wrap;html=1;fontFamily=Lucida Console;align=right;shadow=0;sketch=1;fillStyle=cross-hatch;fillColor=#666666;" parent="1" vertex="1">
                    <mxGeometry x="0.28999999999999915" y="440" width="60" height="40" as="geometry"/>
                </mxCell>
                <mxCell id="86" value="" style="rounded=1;whiteSpace=wrap;html=1;fontFamily=Lucida Console;align=right;shadow=0;sketch=1;fillStyle=cross-hatch;fillColor=#666666;" parent="1" vertex="1">
                    <mxGeometry x="60.28999999999999" y="440" width="90" height="40" as="geometry"/>
                </mxCell>
                <mxCell id="87" value="" style="rounded=1;whiteSpace=wrap;html=1;fontFamily=Lucida Console;align=right;shadow=0;sketch=1;fillStyle=cross-hatch;fillColor=none;" parent="1" vertex="1">
                    <mxGeometry x="180.29" y="440" width="160" height="40" as="geometry"/>
                </mxCell>
                <mxCell id="88" value="" style="rounded=1;whiteSpace=wrap;html=1;fontFamily=Lucida Console;align=right;shadow=0;sketch=1;fillStyle=cross-hatch;fillColor=#666666;" parent="1" vertex="1">
                    <mxGeometry x="180.29" y="440" width="40" height="40" as="geometry"/>
                </mxCell>
                <mxCell id="89" value="" style="rounded=1;whiteSpace=wrap;html=1;fontFamily=Lucida Console;align=right;shadow=0;sketch=1;fillStyle=cross-hatch;fillColor=#666666;" parent="1" vertex="1">
                    <mxGeometry x="220.28999999999996" y="440" width="40" height="40" as="geometry"/>
                </mxCell>
                <mxCell id="90" value="" style="rounded=1;whiteSpace=wrap;html=1;fontFamily=Lucida Console;align=right;shadow=0;sketch=1;fillStyle=cross-hatch;fillColor=#666666;" parent="1" vertex="1">
                    <mxGeometry x="260.29" y="440" width="40" height="40" as="geometry"/>
                </mxCell>
                <mxCell id="91" value="b0" style="rounded=0;whiteSpace=wrap;html=1;fontFamily=Lucida Console;align=center;strokeColor=none;fillColor=none;fontSize=12;" parent="1" vertex="1">
                    <mxGeometry x="0.28999999999999915" y="480" width="60" height="40" as="geometry"/>
                </mxCell>
                <mxCell id="92" value="b1" style="rounded=0;whiteSpace=wrap;html=1;fontFamily=Lucida Console;align=center;strokeColor=none;fillColor=none;fontSize=12;" parent="1" vertex="1">
                    <mxGeometry x="60.28999999999999" y="480" width="90" height="40" as="geometry"/>
                </mxCell>
                <mxCell id="93" value="b2" style="rounded=0;whiteSpace=wrap;html=1;fontFamily=Lucida Console;align=center;strokeColor=none;fillColor=none;fontSize=12;" parent="1" vertex="1">
                    <mxGeometry x="180.29" y="480" width="40" height="40" as="geometry"/>
                </mxCell>
                <mxCell id="94" value="b3" style="rounded=0;whiteSpace=wrap;html=1;fontFamily=Lucida Console;align=center;strokeColor=none;fillColor=none;fontSize=12;" parent="1" vertex="1">
                    <mxGeometry x="220.28999999999996" y="480" width="40" height="40" as="geometry"/>
                </mxCell>
                <mxCell id="95" value="b4" style="rounded=0;whiteSpace=wrap;html=1;fontFamily=Lucida Console;align=center;strokeColor=none;fillColor=none;fontSize=12;" parent="1" vertex="1">
                    <mxGeometry x="260.29" y="480" width="40" height="40" as="geometry"/>
                </mxCell>
                <mxCell id="96" value="" style="rounded=1;whiteSpace=wrap;html=1;fontFamily=Lucida Console;align=right;shadow=0;sketch=1;fillStyle=cross-hatch;fillColor=none;" parent="1" vertex="1">
                    <mxGeometry x="0.28999999999999915" y="600" width="160" height="40" as="geometry"/>
                </mxCell>
                <mxCell id="97" value="&lt;pre&gt;&lt;span class=&quot;n&quot;&gt;createFreeAtOnceMemoryPool()&lt;/span&gt;&lt;span class=&quot;p&quot;&gt;&lt;/span&gt;&lt;/pre&gt;" style="rounded=0;whiteSpace=wrap;html=1;fontFamily=Lucida Console;align=right;strokeColor=none;fillColor=none;fontSize=12;" parent="1" vertex="1">
                    <mxGeometry x="-200" y="40" width="200" height="40" as="geometry"/>
                </mxCell>
                <mxCell id="98" value="&lt;pre&gt;&lt;span class=&quot;n&quot;&gt;allocateBuffer(1024*1024*6)&lt;/span&gt;&lt;span class=&quot;p&quot;&gt;&lt;/span&gt;&lt;/pre&gt;" style="rounded=0;whiteSpace=wrap;html=1;fontFamily=Lucida Console;align=right;strokeColor=none;fillColor=none;fontSize=12;" parent="1" vertex="1">
                    <mxGeometry x="-200" y="120" width="200" height="40" as="geometry"/>
                </mxCell>
                <mxCell id="99" value="&lt;pre&gt;&lt;span class=&quot;n&quot;&gt;allocateBuffer(1024*1024*9)&lt;/span&gt;&lt;span class=&quot;p&quot;&gt;&lt;/span&gt;&lt;/pre&gt;" style="rounded=0;whiteSpace=wrap;html=1;fontFamily=Lucida Console;align=right;strokeColor=none;fillColor=none;fontSize=12;" parent="1" vertex="1">
                    <mxGeometry x="-200" y="200" width="200" height="40" as="geometry"/>
                </mxCell>
                <mxCell id="100" value="&lt;pre&gt;&lt;span class=&quot;n&quot;&gt;allocateBuffer(1024*1024*4)&lt;/span&gt;&lt;span class=&quot;p&quot;&gt;&lt;/span&gt;&lt;/pre&gt;" style="rounded=0;whiteSpace=wrap;html=1;fontFamily=Lucida Console;align=right;strokeColor=none;fillColor=none;fontSize=12;" parent="1" vertex="1">
                    <mxGeometry x="-200" y="280" width="200" height="40" as="geometry"/>
                </mxCell>
                <mxCell id="101" value="&lt;pre&gt;&lt;span class=&quot;n&quot;&gt;allocateBuffer(1024*1024*4)&lt;/span&gt;&lt;span class=&quot;p&quot;&gt;&lt;/span&gt;&lt;/pre&gt;" style="rounded=0;whiteSpace=wrap;html=1;fontFamily=Lucida Console;align=right;strokeColor=none;fillColor=none;fontSize=12;" parent="1" vertex="1">
                    <mxGeometry x="-200" y="360" width="200" height="40" as="geometry"/>
                </mxCell>
                <mxCell id="102" value="&lt;pre&gt;&lt;span class=&quot;n&quot;&gt;allocateBuffer(1024*1024*4)&lt;/span&gt;&lt;span class=&quot;p&quot;&gt;&lt;/span&gt;&lt;/pre&gt;" style="rounded=0;whiteSpace=wrap;html=1;fontFamily=Lucida Console;align=right;strokeColor=none;fillColor=none;fontSize=12;" parent="1" vertex="1">
                    <mxGeometry x="-200" y="440" width="200" height="40" as="geometry"/>
                </mxCell>
                <mxCell id="103" value="&lt;pre&gt;&lt;span class=&quot;n&quot;&gt;b2.reset(), b3.reset()&lt;/span&gt;&lt;span class=&quot;p&quot;&gt;&lt;/span&gt;&lt;/pre&gt;" style="rounded=0;whiteSpace=wrap;html=1;fontFamily=Lucida Console;align=right;strokeColor=none;fillColor=none;fontSize=12;" parent="1" vertex="1">
                    <mxGeometry x="-199.71" y="600" width="200" height="40" as="geometry"/>
                </mxCell>
                <mxCell id="104" value="" style="rounded=1;whiteSpace=wrap;html=1;fontFamily=Lucida Console;align=right;shadow=0;sketch=1;fillStyle=cross-hatch;fillColor=none;" vertex="1" parent="1">
                    <mxGeometry x="0.28999999999999915" y="520" width="160" height="40" as="geometry"/>
                </mxCell>
                <mxCell id="107" value="" style="rounded=1;whiteSpace=wrap;html=1;fontFamily=Lucida Console;align=right;shadow=0;sketch=1;fillStyle=cross-hatch;fillColor=none;" vertex="1" parent="1">
                    <mxGeometry x="180.29" y="520" width="160" height="40" as="geometry"/>
                </mxCell>
                <mxCell id="108" value="" style="rounded=1;whiteSpace=wrap;html=1;fontFamily=Lucida Console;align=right;shadow=0;sketch=1;fillStyle=cross-hatch;fillColor=#CC0000;" vertex="1" parent="1">
                    <mxGeometry x="180.29" y="520" width="40" height="40" as="geometry"/>
                </mxCell>
                <mxCell id="109" value="" style="rounded=1;whiteSpace=wrap;html=1;fontFamily=Lucida Console;align=right;shadow=0;sketch=1;fillStyle=cross-hatch;fillColor=#CC0000;" vertex="1" parent="1">
                    <mxGeometry x="220.28999999999996" y="520" width="40" height="40" as="geometry"/>
                </mxCell>
                <mxCell id="113" value="b2" style="rounded=0;whiteSpace=wrap;html=1;fontFamily=Lucida Console;align=center;strokeColor=none;fillColor=none;fontSize=12;" vertex="1" parent="1">
                    <mxGeometry x="180.29" y="560" width="40" height="40" as="geometry"/>
                </mxCell>
                <mxCell id="114" value="b3" style="rounded=0;whiteSpace=wrap;html=1;fontFamily=Lucida Console;align=center;strokeColor=none;fillColor=none;fontSize=12;" vertex="1" parent="1">
                    <mxGeometry x="220.28999999999996" y="560" width="40" height="40" as="geometry"/>
                </mxCell>
                <mxCell id="116" value="&lt;pre&gt;&lt;span class=&quot;n&quot;&gt;b0.reset(), b4.reset(), b1.reset()&lt;/span&gt;&lt;span class=&quot;p&quot;&gt;&lt;/span&gt;&lt;/pre&gt;" style="rounded=0;whiteSpace=wrap;html=1;fontFamily=Lucida Console;align=right;strokeColor=none;fillColor=none;fontSize=12;" vertex="1" parent="1">
                    <mxGeometry x="-200" y="520" width="200" height="40" as="geometry"/>
                </mxCell>
            </root>
        </mxGraphModel>
    </diagram>
</mxfile>